<svg width="20" height="20" viewBox="0 0 20 20" fill="none" xmlns="http://www.w3.org/2000/svg">
<path d="M10 0C4.48077 0 0 4.48077 0 10C0 15.5192 4.48077 20 10 20C15.5192 20 20 15.5192 20 10C20 4.48077 15.5192 0 10 0ZM12.0096 14.5C12.0096 14.7761 11.7858 15 11.5096 15H9.49039C9.21424 15 8.99039 14.7761 8.99039 14.5V11.4952C8.99039 11.2191 8.76653 10.9952 8.49039 10.9952C8.21424 10.9952 7.99039 10.7713 7.99039 10.4952V9.49039C7.99039 9.21424 8.21424 8.99039 8.49039 8.99039H10.5084C10.785 8.99039 11.0091 9.21497 11.0084 9.49158L11.0012 12.4988C11.0005 12.7754 11.2288 13 11.5054 13C11.7816 13 12.0096 13.2239 12.0096 13.5V14.5ZM11.0096 6.51923C11.0096 6.79537 10.7858 7.01923 10.5096 7.01923H9.49039C9.21424 7.01923 8.99039 6.79537 8.99039 6.51923V5.5C8.99039 5.22386 9.21424 5 9.49039 5H10.5096C10.7858 5 11.0096 5.22386 11.0096 5.5V6.51923Z" fill="#1D1D1D"/>
</svg>
