<svg width="16" height="16" viewBox="0 0 16 16" fill="none" xmlns="http://www.w3.org/2000/svg">
<path d="M0 3.5C0 3.77614 0.223858 4 0.5 4H3.5C3.77614 4 4 3.77614 4 3.5V0.5C4 0.223858 3.77614 0 3.5 0H0.5C0.223858 0 0 0.223858 0 0.5V3.5Z" fill="#F5F5F4"/>
<path d="M6 15.5C6 15.7761 6.22386 16 6.5 16H9.5C9.77614 16 10 15.7761 10 15.5V12.5C10 12.2239 9.77614 12 9.5 12H6.5C6.22386 12 6 12.2239 6 12.5V15.5Z" fill="#F5F5F4"/>
<path d="M4 15.5C4 15.7761 3.77614 16 3.5 16H0.5C0.223858 16 0 15.7761 0 15.5V12.5C0 12.2239 0.223858 12 0.5 12H3.5C3.77614 12 4 12.2239 4 12.5V15.5Z" fill="#F5F5F4"/>
<path d="M0 9.5C0 9.77614 0.223858 10 0.5 10H3.5C3.77614 10 4 9.77614 4 9.5V6.5C4 6.22386 3.77614 6 3.5 6H0.5C0.223858 6 0 6.22386 0 6.5V9.5Z" fill="#F5F5F4"/>
<path d="M10 9.5C10 9.77614 9.77614 10 9.5 10H6.5C6.22386 10 6 9.77614 6 9.5V6.5C6 6.22386 6.22386 6 6.5 6H9.5C9.77614 6 10 6.22386 10 6.5V9.5Z" fill="#F5F5F4"/>
<path d="M12.5 0C12.2239 0 12 0.223858 12 0.5V3.5C12 3.77614 12.2239 4 12.5 4H15.5C15.7761 4 16 3.77614 16 3.5V0.5C16 0.223858 15.7761 0 15.5 0H12.5Z" fill="#F5F5F4"/>
<path d="M10 3.5C10 3.77614 9.77614 4 9.5 4H6.5C6.22386 4 6 3.77614 6 3.5V0.5C6 0.223858 6.22386 0 6.5 0H9.5C9.77614 0 10 0.223858 10 0.5V3.5Z" fill="#F5F5F4"/>
<path d="M12 9.5C12 9.77614 12.2239 10 12.5 10H15.5C15.7761 10 16 9.77614 16 9.5V6.5C16 6.22386 15.7761 6 15.5 6H12.5C12.2239 6 12 6.22386 12 6.5V9.5Z" fill="#F5F5F4"/>
<path d="M16 15.5C16 15.7761 15.7761 16 15.5 16H12.5C12.2239 16 12 15.7761 12 15.5V12.5C12 12.2239 12.2239 12 12.5 12H15.5C15.7761 12 16 12.2239 16 12.5V15.5Z" fill="#F5F5F4"/>
</svg>
