<svg width="19" height="19" viewBox="0 0 19 19" fill="none" xmlns="http://www.w3.org/2000/svg">
<path fill-rule="evenodd" clip-rule="evenodd" d="M0.0681539 8.97997C0.0233746 9.5621 0.235205 10.1347 0.648049 10.5476L8.48288 18.3824C9.26393 19.1635 10.5303 19.1635 11.3113 18.3824L18.3824 11.3113C19.1634 10.5303 19.1634 9.26396 18.3824 8.48291L10.5475 0.64808C10.1347 0.235235 9.56207 0.0234053 8.97994 0.0681844L2.41395 0.573261C1.43039 0.648919 0.648889 1.43042 0.57323 2.41398L0.0681539 8.97997ZM7.06867 7.0687C7.84972 6.28765 7.84972 5.02132 7.06867 4.24027C6.28762 3.45923 5.02129 3.45923 4.24024 4.24027C3.4592 5.02132 3.4592 6.28765 4.24024 7.0687C5.02129 7.84975 6.28762 7.84975 7.06867 7.0687Z" fill="#1D1D1D"/>
</svg>
