<svg width="19" height="19" viewBox="0 0 19 19" fill="none" xmlns="http://www.w3.org/2000/svg">
<path fill-rule="evenodd" clip-rule="evenodd" d="M0.0681539 8.97994C0.0233746 9.56207 0.235205 10.1347 0.648049 10.5475L8.48288 18.3824C9.26393 19.1634 10.5303 19.1634 11.3113 18.3824L18.3824 11.3113C19.1634 10.5303 19.1634 9.26393 18.3824 8.48288L10.5475 0.648049C10.1347 0.235205 9.56207 0.0233747 8.97994 0.0681539L2.41395 0.57323C1.43039 0.648889 0.648889 1.43039 0.57323 2.41395L0.0681539 8.97994ZM7.06867 7.06867C7.84972 6.28762 7.84972 5.02129 7.06867 4.24024C6.28762 3.4592 5.02129 3.4592 4.24024 4.24024C3.4592 5.02129 3.4592 6.28762 4.24024 7.06867C5.02129 7.84972 6.28762 7.84972 7.06867 7.06867Z" fill="#F5F5F4"/>
</svg>
