<svg width="18" height="18" viewBox="0 0 18 18" fill="none" xmlns="http://www.w3.org/2000/svg">
<path fill-rule="evenodd" clip-rule="evenodd" d="M10.6624 12.2536C9.55884 13.0394 8.20881 13.5016 6.75083 13.5016C3.02245 13.5016 0 10.4792 0 6.75082C0 3.02244 3.02245 0 6.75083 0C10.4792 0 13.5017 3.02244 13.5017 6.75082C13.5017 8.20881 13.0395 9.55885 12.2536 10.6624L17.8352 16.244C18.0549 16.4637 18.0549 16.8199 17.8352 17.0396L17.0396 17.8352C16.8199 18.0549 16.4637 18.0549 16.244 17.8352L10.6624 12.2536ZM11.2514 6.75082C11.2514 9.2364 9.23642 11.2514 6.75083 11.2514C4.26524 11.2514 2.25028 9.2364 2.25028 6.75082C2.25028 4.26523 4.26524 2.25027 6.75083 2.25027C9.23642 2.25027 11.2514 4.26523 11.2514 6.75082Z" fill="#1D1D1D"/>
</svg>
