<svg width="16" height="12" viewBox="0 0 16 12" fill="none" xmlns="http://www.w3.org/2000/svg">
<path d="M16 5.5C16 5.22386 15.7761 5 15.5 5L5.03473 5C4.58961 5 4.36638 4.46212 4.68068 4.14694L7.05743 1.76355C7.25223 1.56821 7.25201 1.25201 7.05694 1.05694L6.35355 0.353553C6.15829 0.158291 5.84171 0.158291 5.64645 0.353553L0.353553 5.64645C0.158291 5.84171 0.158291 6.15829 0.353553 6.35355L5.64645 11.6464C5.84171 11.8417 6.15829 11.8417 6.35355 11.6464L7.05694 10.9431C7.25201 10.748 7.25223 10.4318 7.05743 10.2364L4.68068 7.85306C4.36638 7.53788 4.58961 7 5.03473 7L15.5 7C15.7761 7 16 6.77614 16 6.5V5.5Z" fill="#707070"/>
</svg>
